<?xml version="1.0" encoding="UTF-8"?>
<svg width="34px" height="31px" viewBox="0 0 34 31" version="1.1" xmlns="http://www.w3.org/2000/svg" xmlns:xlink="http://www.w3.org/1999/xlink">
    <title>icon-bot</title>
    <g id="Page-1" stroke="none" stroke-width="1" fill="none" fill-rule="evenodd">
        <g id="icon-bot" transform="translate(1.000000, 2.000000)">
            <path d="M8,4 L24,4 C26.209139,4 28,5.790861 28,8 L28,24 C28,26.209139 26.209139,28 24,28 L8,28 C5.790861,28 4,26.209139 4,24 L4,8 C4,5.790861 5.790861,4 8,4 Z" id="Path" stroke="#99FFFF" stroke-width="2"></path>
            <polygon id="Path" stroke="#99FFFF" stroke-width="3" points="15 0 17 0 17 6 15 6"></polygon>
            <path d="M11,10.9989997 C11.7148884,10.9993573 12.375282,11.3810758 12.7324168,12.000366 C13.0895517,12.6196562 13.0891705,13.3824331 12.7314168,14.001366 C12.3736632,14.6202989 11.7128884,15.0013573 10.9979997,15.0010003 C9.89287822,15.0004477 8.99744772,14.1041218 8.99799974,12.9989997 C8.99855228,11.8938782 9.89487822,10.9984477 11,10.9989997 Z M21,10.9989997 C21.7148884,10.9993573 22.375282,11.3810758 22.7324168,12.000366 C23.0895517,12.6196562 23.0891705,13.3824331 22.7314168,14.001366 C22.3736632,14.6202989 21.7128884,15.0013573 20.9979997,15.0010003 C19.8928782,15.0004477 18.9974477,14.1041218 18.9979997,12.9989997 C18.9985523,11.8938782 19.8948782,10.9984477 21,10.9989997 L21,10.9989997 Z" id="Shape" fill="#99FFFF"></path>
            <path d="M22,18 C22,20.761 18.761,23 16,23 C13.238,23 10,20.761 10,18 M4,20 C1.790861,20 0,18.209139 0,16 C0,13.790861 1.790861,12 4,12 M28,12 C30.209139,12 32,13.790861 32,16 C32,18.209139 30.209139,20 28,20" id="Shape" stroke="#99FFFF" stroke-width="2"></path>
        </g>
    </g>
</svg>